<?xml version="1.0" standalone="no"?>
<!DOCTYPE svg PUBLIC "-//W3C//DTD SVG 20010904//EN"
 "http://www.w3.org/TR/2001/REC-SVG-20010904/DTD/svg10.dtd">
<svg version="1.0" xmlns="http://www.w3.org/2000/svg"
 width="896.000000pt" height="896.000000pt" viewBox="0 0 896.000000 896.000000"
 preserveAspectRatio="xMidYMid meet">
<metadata>
Created by potrace 1.14, written by Peter Selinger 2001-2017
</metadata>
<g transform="translate(0.000000,896.000000) scale(0.100000,-0.100000)"
fill="#000000" stroke="none">
<path d="M1260 8011 l0 -950 58 0 c31 -1 64 -1 72 -1 8 -1 62 -1 120 -1 58 1
112 1 120 0 8 0 62 0 120 0 58 1 112 1 120 0 8 0 62 0 120 0 58 1 112 1 120 0
8 0 62 0 120 0 58 1 112 1 120 0 8 0 62 0 120 0 58 1 112 1 120 0 8 0 62 0
120 0 58 1 112 1 120 0 8 0 62 0 120 0 58 1 113 1 123 1 9 -1 46 -1 82 -1 36
0 71 0 78 0 6 0 59 0 117 0 58 1 112 1 120 0 8 0 62 0 120 0 58 1 112 0 120 0
12 0 833 0 880 0 26 0 224 1 240 0 8 0 62 0 120 0 58 1 112 1 120 0 17 0 215
0 245 1 68 0 120 -2 124 -6 3 -2 -4 -12 -15 -22 -27 -26 -139 -152 -219 -247
-22 -26 -48 -57 -59 -69 -10 -11 -30 -37 -45 -56 -14 -19 -31 -39 -37 -45 -6
-5 -38 -44 -70 -85 -32 -41 -61 -77 -64 -80 -3 -3 -18 -23 -35 -45 -16 -22
-34 -45 -40 -51 -5 -6 -17 -22 -25 -34 -8 -12 -23 -32 -32 -43 -33 -41 -85
-111 -114 -152 -12 -16 -71 -100 -131 -187 -155 -220 -453 -687 -453 -709 0
-5 -4 -9 -10 -9 -5 0 -10 -6 -10 -14 0 -8 -6 -21 -13 -28 -6 -7 -21 -31 -32
-53 -11 -22 -22 -42 -26 -45 -9 -8 -119 -213 -119 -222 0 -4 -5 -8 -11 -8 -5
0 -8 -4 -5 -9 4 -5 3 -11 -2 -13 -15 -6 -362 -700 -362 -724 0 -2 -17 -39 -38
-82 -21 -42 -39 -80 -40 -85 -1 -4 -11 -29 -22 -55 -78 -171 -248 -609 -321
-822 -22 -63 -43 -122 -46 -130 -3 -8 -7 -17 -8 -20 -2 -9 -86 -273 -102 -320
-8 -25 -16 -52 -18 -60 -2 -8 -20 -71 -40 -140 -21 -69 -39 -136 -42 -149 -2
-14 -6 -28 -9 -33 -3 -4 -7 -17 -10 -28 -6 -29 -9 -40 -52 -215 -22 -88 -48
-196 -57 -240 -10 -44 -20 -87 -23 -95 -2 -8 -6 -22 -7 -30 -1 -8 -9 -51 -19
-95 -21 -101 -25 -123 -31 -160 -3 -16 -8 -37 -10 -45 -2 -8 -7 -31 -9 -50 -3
-19 -7 -44 -9 -55 -5 -20 -18 -94 -23 -130 -2 -11 -7 -47 -13 -80 -21 -125
-46 -309 -56 -405 -3 -30 -8 -68 -12 -85 -3 -16 -7 -55 -8 -85 -2 -30 -6 -80
-9 -110 -8 -66 -16 -164 -20 -242 l-4 -58 1118 0 1118 0 1 83 c1 45 4 107 6
137 2 30 7 102 10 160 4 58 8 121 10 140 2 19 7 73 10 120 3 47 8 92 10 100 2
8 7 51 10 95 5 72 11 120 15 120 0 0 3 25 6 55 7 88 22 205 31 245 2 11 5 34
7 50 6 51 16 118 28 180 6 33 12 74 14 90 2 17 9 55 14 85 6 30 13 69 16 85
16 92 77 381 81 388 2 4 7 24 9 44 8 62 150 617 183 713 5 14 19 59 31 100 68
233 235 703 346 973 50 123 55 135 159 367 57 127 236 491 303 615 119 221
136 251 148 266 8 8 14 19 14 22 0 12 180 307 287 470 56 87 103 160 103 162
0 3 7 13 15 22 8 10 74 102 147 204 139 195 165 230 211 284 15 18 27 36 27
39 0 4 11 19 25 34 14 15 50 59 81 97 73 92 117 145 189 230 101 118 109 128
135 156 14 15 54 59 90 99 36 40 107 116 157 169 l93 96 0 833 0 832 -3225 0
-3225 0 0 -949z m1773 668 c254 1 469 1 477 1 8 1 224 1 480 0 256 0 472 0
480 0 8 1 224 1 480 0 256 0 472 0 480 0 8 1 224 1 480 0 256 0 472 0 480 0
20 1 948 1 978 0 13 0 28 -2 33 -6 5 -3 9 -262 9 -622 l-1 -617 -87 -91 c-48
-50 -116 -124 -152 -164 -36 -40 -76 -85 -90 -99 -14 -15 -35 -40 -48 -56 -12
-15 -45 -54 -72 -85 -45 -51 -250 -310 -310 -390 -14 -18 -35 -46 -47 -61 -13
-15 -23 -31 -23 -37 0 -6 -4 -12 -9 -14 -7 -2 -81 -104 -185 -253 -62 -88
-106 -157 -106 -164 0 -5 -3 -11 -7 -13 -27 -11 -342 -532 -494 -813 -30 -55
-68 -127 -86 -160 -18 -33 -38 -71 -44 -85 -6 -14 -15 -32 -19 -40 -19 -34
-121 -241 -160 -325 -23 -49 -54 -115 -69 -145 -14 -30 -26 -57 -27 -60 -1 -5
-7 -21 -44 -105 -27 -63 -47 -109 -72 -162 -11 -24 -21 -49 -22 -55 -2 -7 -8
-26 -15 -43 -7 -16 -12 -31 -12 -33 1 -1 -5 -15 -13 -30 -18 -34 -96 -237
-140 -362 -19 -52 -52 -146 -74 -207 -22 -62 -38 -113 -36 -113 3 0 -1 -10 -8
-22 -7 -13 -13 -26 -14 -30 -1 -5 -2 -9 -4 -10 -1 -2 -3 -11 -5 -20 -2 -9 -14
-52 -28 -95 -44 -137 -72 -232 -81 -273 -3 -14 -10 -36 -15 -50 -8 -20 -63
-220 -76 -279 -3 -9 -18 -72 -35 -141 -17 -69 -38 -156 -46 -195 -9 -38 -18
-79 -20 -90 -3 -11 -7 -29 -8 -40 -2 -11 -11 -54 -19 -95 -19 -89 -25 -123
-33 -170 -3 -19 -7 -43 -10 -53 -3 -10 -7 -32 -10 -50 -2 -18 -6 -43 -9 -57
-13 -68 -38 -228 -50 -330 -1 -14 -6 -45 -9 -70 -11 -75 -15 -112 -22 -180 -3
-36 -7 -72 -9 -80 -2 -8 -6 -53 -10 -100 -3 -47 -8 -107 -11 -135 -6 -69 -15
-234 -19 -325 -2 -41 -3 -80 -4 -87 -1 -8 -113 -11 -423 -12 -233 -1 -430 -1
-438 -2 -8 0 -171 1 -361 2 -190 1 -351 -1 -357 -5 -11 -7 -36 27 -26 36 2 3
6 25 8 49 8 77 17 163 21 189 3 14 7 50 11 80 5 54 30 230 39 281 3 14 7 41
10 60 2 19 7 45 9 59 3 14 7 41 10 60 3 19 8 45 10 56 2 12 7 39 11 60 8 56
18 107 30 164 7 34 14 66 25 120 48 240 133 576 234 925 1 6 8 30 15 55 44
158 214 655 274 800 5 14 11 30 12 35 6 24 68 171 76 181 5 7 9 16 8 20 -2 8
15 53 41 109 5 11 29 67 54 125 24 58 57 132 72 165 15 33 28 62 29 65 4 18
307 631 359 725 18 33 48 89 67 125 19 36 42 76 51 90 8 14 29 50 46 80 96
170 107 188 155 263 20 31 37 59 37 62 0 5 82 138 90 145 3 3 23 34 45 70 38
63 296 450 315 473 6 7 52 71 103 142 51 72 123 171 161 220 37 50 78 103 89
119 12 16 30 38 39 50 23 28 24 29 93 116 32 41 67 84 76 95 10 11 41 49 70
85 29 36 55 67 58 70 4 3 24 27 46 54 39 49 67 82 103 121 10 11 47 54 83 95
35 41 83 95 106 120 24 25 43 47 43 50 0 3 -996 4 -2212 3 -1217 -1 -2222 0
-2233 2 -20 4 -20 11 -20 665 0 580 2 661 15 665 8 2 230 4 493 3 262 0 480 2
484 5 3 4 10 4 15 1 5 -3 217 -5 471 -5z"/>
</g>
</svg>
